<?xml version="1.0" encoding="UTF-8"?>
<svg id="Layer_1" xmlns="http://www.w3.org/2000/svg" version="1.1" viewBox="0 0 512 512">
  <!-- Generator: Adobe Illustrator 29.1.0, SVG Export Plug-In . SVG Version: 2.1.0 Build 142)  -->
  <defs>
    <style>
      .st0 {
        fill: #273887;
      }

      .st1 {
        fill: #fff;
      }
    </style>
  </defs>
  <path class="st0" d="M256,0C153.8,0,70.6,83.2,70.6,185.4s165.9,313.2,173,321c6.6,7.4,18.2,7.4,24.8,0,7.1-7.9,173-194.1,173-321C441.4,83.2,358.2,0,256,0Z"/>
  <path id="path3" class="st0" d="M398.5,184.9c0,78.7-63.8,142.5-142.5,142.5s-142.5-63.8-142.5-142.5S177.3,42.5,256,42.5s142.5,63.8,142.5,142.5"/>
  <path class="st1" d="M256,22.9c-89.3,0-162,72.7-162,162s72.7,162,162,162,162-72.7,162-162S345.3,22.9,256,22.9ZM256,330.6c-25.9,0-50.2-6.8-71.3-18.7h45.4c1.9,0,3.9,0,5.8,0h1.7c2.8,0,5.6-.2,8.2-.4,16.9-1.3,29.9-3.1,38.9-5.7,22.2-6.4,37.2-17.2,44.9-32.4,7.6-15.1,9.3-29.9,5.1-44.6-4.3-14.9-13-25.3-26.1-31.1-13.6-6-34-9.2-61-9.6-20.7-.5-35.8-1.9-45.3-4.2-9.4-2.1-18.2-6.9-26.2-14.1-7.8-7-13.4-16.2-16.6-27.5-1.2-4.2-1.8-9.4-1.6-15.5-4.5,13.2-5.1,25.6-1.8,37.1,2.9,10.3,8.4,18.8,16.5,25.4,7.6,6.6,16.7,11,27.3,13.1,9.2,1.8,24,3.1,44.7,3.9,25.7.9,43.4,3.3,53.2,7.1,10.1,3.9,16.7,11.5,20,22.8,3.1,10.7,1.4,21.2-4.9,31.3-6.4,10.2-16.6,16.3-30,21.1-13.8,4.9-28.1,5.7-45.2,5.8h0s-77.8,0-77.8,0c-5.7-5.1-11.1-10.6-16-16.5,22.8,0,76.4.3,107.9,0,47.4-.5,52.8-29,52.8-29,0,0-11.4,10.2-47.6,10.2h-126.3c-12.8-21.7-20.2-47-20.2-73.9,0-80.3,65.3-145.7,145.7-145.7s51.7,7.2,73.2,19.8h-58.3c-12.1.3-22.9,1-33.6,3.1-25,5-43.6,16-54.3,29-10.6,13.2-13.6,28.2-8.8,44.7,4.1,14.3,11.5,23.7,22.2,28,10.6,4.2,31.6,6.9,62.9,8.1,20.8.8,36.2,2.7,46.2,5.8,9.8,3,18.9,8.3,27.1,15.8,8,7.5,13.6,17,16.9,28.6,3.5,12.3,3.8,22.6.9,30.9,10.4-14.2,13-30.3,7.8-48.4-3.4-11.9-9.5-21.8-18.5-29.8-8.8-7.7-18.5-12.7-29.1-15.2-9.9-2.2-26.6-3.9-50.2-5.1-25.3-1.3-42.8-3.8-52.3-7.4-9.1-3.2-15-9.5-17.6-18.7-2.5-8.7.1-17.6,7.9-26.6,7.7-8.9,18.8-15.5,33.4-19.7,15.4-4.4,34.7-5.2,49.9-5.3h3.7c1.7,0,3.3,0,4.9,0,.2,0,.4,0,.6,0h62.7c5.8,5.2,11.2,11,16.1,17.1h-110.2c-47.5,0-52.8,28.9-52.8,28.9,0,0,11.4-10.2,47.6-10.2h128.2c12.2,21.3,19.3,46,19.3,72.3,0,80.3-65.4,145.7-145.7,145.7Z"/>
</svg>